<?xml version="1.0" encoding="UTF-8" standalone="no"?>
<!-- Created with Inkscape (http://www.inkscape.org/) -->

<svg
   version="1.1"
   id="svg9"
   width="499"
   height="498"
   viewBox="0 0 499 498"
   sodipodi:docname="avatar.svg"
   inkscape:version="1.1.2 (b8e25be833, 2022-02-05)"
   xmlns:inkscape="http://www.inkscape.org/namespaces/inkscape"
   xmlns:sodipodi="http://sodipodi.sourceforge.net/DTD/sodipodi-0.dtd"
   xmlns="http://www.w3.org/2000/svg"
   xmlns:svg="http://www.w3.org/2000/svg">
  <defs
     id="defs13" />
  <sodipodi:namedview
     id="namedview11"
     pagecolor="#505050"
     bordercolor="#eeeeee"
     borderopacity="1"
     inkscape:pageshadow="0"
     inkscape:pageopacity="0"
     inkscape:pagecheckerboard="0"
     showgrid="false"
     inkscape:zoom="0.5"
     inkscape:cx="815"
     inkscape:cy="288"
     inkscape:window-width="1366"
     inkscape:window-height="705"
     inkscape:window-x="-8"
     inkscape:window-y="-8"
     inkscape:window-maximized="1"
     inkscape:current-layer="g15" />
  <g
     inkscape:groupmode="layer"
     inkscape:label="Image"
     id="g15"
     style="display:inline">
    <g
       id="g1290">
      <g
         id="g1266">
        <path
           id="rect39259"
           style="fill:#4785a4;stroke-width:11.3386;stroke-linecap:round"
           d="M 0,0 H 500 V 500 H 0 Z"
           sodipodi:nodetypes="ccccc" />
        <path
           style="fill:#275d71;fill-opacity:1;stroke:none;stroke-width:0.892786px;stroke-linecap:butt;stroke-linejoin:miter;stroke-opacity:1"
           d="M 245.59575,106.76256 500.0533,219.64049 500,500 245.875,500.15043"
           id="path40508"
           sodipodi:nodetypes="cccc" />
      </g>
      <g
         id="g1240">
        <g
           id="path35177"
           transform="translate(4.8091875,-0.12362426)">
          <path
             style="color:#000000;fill:#555555;stroke-width:1.03805px;-inkscape-stroke:none"
             d="m 149.93635,343.28068 c 0,0 -24.58657,7.89808 -58.527701,14.18407 0,0 -7.03479,-0.24337 -16.53479,12.68713 -9.5,12.9305 -21.875,46.60368 -23.5,53.87709 -1.625,7.27341 -9,36.23234 -9,36.23234 l -7.625,39.19558 H 465.62385 l -6.69646,-33.13038 -6.86604,-27.00992 -8.3125,-29.09363 -8.375,-20.3386 c 0,0 -8.875,-21.14675 -18.1875,-28.6222 -9.3125,-7.47545 -50.875,-12.59377 -52.875,-13.06519 -2,-0.47143 -17.125,-5.25302 -17.125,-5.25302 z"
             id="path39043" />
          <path
             style="color:#000000;fill:#000000;-inkscape-stroke:none"
             d="m 347.26562,342.42383 -197.41015,0.33789 -0.0781,0.0254 c 0,0 -24.5542,7.88799 -58.462887,14.16797 l 0.111328,-0.01 c 0,0 -0.524078,-0.0134 -1.376953,0.17578 -0.852875,0.18919 -2.074615,0.57996 -3.587891,1.37891 -3.02655,1.59789 -7.218751,4.82799 -12.005859,11.34375 -4.813609,6.55183 -10.272171,18.2107 -14.763672,29.17187 -4.4915,10.96118 -7.987752,21.15642 -8.824219,24.9004 -1.616056,7.23337 -8.996093,36.21679 -8.996093,36.21679 l -0.0039,0.0156 -7.748046,39.82812 H 466.25781 l -6.82422,-33.76562 -6.87109,-27.0293 -8.32227,-29.12891 -8.38671,-20.36718 -0.002,-0.002 c 0,0 -2.22678,-5.30883 -5.62304,-11.55468 -3.39626,-6.24585 -7.93701,-13.43459 -12.7168,-17.27149 -2.45255,-1.96874 -6.82459,-3.67657 -12.08789,-5.22265 -5.2633,-1.54608 -11.40632,-2.90268 -17.31836,-4.04102 -5.91205,-1.13834 -11.59301,-2.0572 -15.91992,-2.7207 -2.16346,-0.33175 -3.9886,-0.59926 -5.33399,-0.79883 -1.34538,-0.19957 -2.26517,-0.34588 -2.42187,-0.38281 -0.90298,-0.21285 -5.24751,-1.53909 -9.27735,-2.79297 -4.02983,-1.25389 -7.80859,-2.44922 -7.80859,-2.44922 z m -0.16015,1.03906 c 0.0726,0.0229 3.74487,1.18323 7.73828,2.42578 4.03266,1.25477 8.25063,2.55587 9.34766,2.81445 0.34329,0.0809 1.16106,0.19672 2.50781,0.39649 1.34675,0.19977 3.1703,0.46764 5.33008,0.79883 4.31956,0.66237 9.98627,1.58024 15.8789,2.71484 5.89263,1.1346 12.01136,2.48678 17.22266,4.01758 5.2113,1.5308 9.52677,3.26618 11.73047,5.03516 4.5327,3.63854 9.08572,10.7626 12.45508,16.95898 3.36935,6.19638 5.57812,11.46094 5.57812,11.46094 v -0.004 l 8.36328,20.3125 8.30274,29.05664 6.86132,26.99024 6.56836,32.49609 H 35.378906 l 7.498047,-38.54883 0.002,-0.01 0.0039,-0.0176 c 0.01102,-0.0433 7.36533,-28.9108 8.998047,-36.21875 0.788532,-3.52943 4.292291,-13.808 8.769532,-24.73438 4.47724,-10.92637 9.956196,-22.57056 14.642578,-28.94922 4.712882,-6.41472 8.786505,-9.52797 11.652343,-11.04101 1.43292,-0.75652 2.565104,-1.11395 3.328125,-1.2832 0.763022,-0.16926 1.117188,-0.1504 1.117188,-0.1504 l 0.05664,0.002 0.05664,-0.0117 c 33.889364,-6.2764 58.388204,-14.13676 58.509764,-14.17578 z"
             id="path39045" />
        </g>
        <g
           id="path514"
           transform="translate(4.8091875,-0.12362426)">
          <path
             style="color:#000000;fill:#fdd2a8;stroke-width:1px;-inkscape-stroke:none"
             d="m 265.63475,364.37356 c -3.3723,1.50866 -9.14071,5.7684 -10.1169,9.49568 l -9.85067,0.0888 c 0,0 -6.03464,-9.40694 -11.62556,-10.20565 -5.59092,-0.7987 -18.45891,-8.60824 -24.04983,-11.62556 -5.59092,-3.01732 -17.92644,-13.13422 -19.87882,-16.32903 -1.95239,-3.19482 -2.92858,-3.63854 -3.10607,-10.47189 -0.17749,-6.83334 -1.95238,-34.96543 -1.41991,-36.65158 0.53247,-1.68615 -0.44373,-6.30088 -0.44373,-6.30088 0,0 -10.82686,-19.16886 -11.62556,-26.80091 0,0 -3.10607,-6.56716 -3.54979,-11.18189 l -0.90858,-1.57304 c 0,0 -2.19632,0.21963 -5.27117,-2.16494 -3.07485,-2.38458 -6.71446,-7.21648 -10.22858,-13.49169 -3.51411,-6.2752 -4.8319,-16.88029 -4.89465,-19.51587 -0.0627,-2.63559 -1.81981,-12.11114 1.75705,-17.94708 3.57687,-5.83594 5.45943,-4.89466 5.45943,-4.89466 0,0 0.75302,-0.31376 4.01613,2.57284 3.1376,3.95337 3.82787,4.14163 5.71043,8.91078 0,0 1.19229,4.26714 0.56477,-4.8319 0,0 0.87853,-23.4065 4.14163,-30.74849 0,0 8.97634,-33.52293 36.39617,-37.83947 0,0 9.41281,12.67591 31.87803,22.59073 22.46522,9.91482 36.64717,9.03629 36.64717,9.03629 0,0 14.80949,1.12954 20.33167,-0.37651 5.52217,-1.50605 13.80544,-3.89063 18.57459,-5.64768 4.76916,-1.75706 8.65978,0.75302 8.65978,0.75302 0,0 4.76916,2.69834 7.40474,9.2873 2.63559,6.58896 4.01613,9.72656 4.07888,15.43699 0.0627,5.71044 1.4433,24.78705 1.4433,24.78705 0,0 2.32182,-5.83594 5.52218,-8.97354 3.20035,-3.1376 9.72656,-7.53024 11.79737,-1.50605 2.07082,6.0242 2.25908,10.47959 2.25908,10.47959 0,0 0.81577,9.72656 -1.06679,15.75076 -1.88256,6.02419 -2.00806,9.60106 -5.64768,15.12323 -3.63962,5.52218 -4.89466,8.53428 -8.34602,10.7306 -3.45136,2.19632 -4.95741,1.38054 -5.83593,2.51008 -0.87853,1.12953 -4.96867,18.75814 -9.31716,27.63262 -4.3485,8.87447 -7.3435,15.00737 -7.3435,15.00737 l -2.85522,4.86329 -0.45065,29.69328 -1.02057,0.22186 -0.22186,10.38314 c 0,0 -6.83335,10.56063 -12.06929,14.2879 -5.23594,3.72728 -19.1197,11.9937 -19.1197,11.9937 0,0 -13.00591,5.93274 -16.37821,7.44141 z"
             id="path39049" />
          <path
             style="color:#000000;fill:#000000;-inkscape-stroke:none"
             d="m 206.93164,122.32617 -0.29883,0.0469 c -27.69981,4.36061 -36.71311,37.89812 -36.77539,38.13086 -7.1e-4,0.002 -10e-4,0.004 -0.002,0.006 -1.8e-4,6.8e-4 -0.0234,0.0684 -0.0234,0.0684 -1.68846,3.85584 -2.6849,11.45984 -3.31055,18.20899 -0.62897,6.78506 -0.84765,12.64844 -0.84765,12.64844 l -0.002,0.0273 0.002,0.0273 c 0.14234,2.064 0.16995,3.26933 0.16015,4.13868 -1.70614,-4.16777 -2.57753,-4.82556 -5.54492,-8.56446 l -0.0273,-0.0332 -0.0332,-0.0293 c -1.65259,-1.4619 -2.68429,-2.13211 -3.34961,-2.44726 -0.33266,-0.15758 -0.57536,-0.2274 -0.76563,-0.25196 -0.0951,-0.0123 -0.17713,-0.0116 -0.24805,-0.004 -0.0111,0.001 -0.015,0.005 -0.0273,0.008 -0.10646,-0.0297 -0.14064,-0.0608 -0.3125,-0.0586 -0.31888,0.004 -0.75007,0.0933 -1.26953,0.37304 -1.03891,0.55942 -2.44465,1.85491 -4.25977,4.81641 -1.87049,3.05186 -2.31836,6.96153 -2.31836,10.43359 1e-5,3.47207 0.45924,6.56414 0.48829,7.78516 0.0659,2.7702 1.35162,13.31177 4.95703,19.75 3.53256,6.30815 7.17704,11.17269 10.35937,13.64062 1.58886,1.23217 2.97126,1.80656 3.96875,2.06641 0.77774,0.20261 1.07822,0.16193 1.29297,0.15625 l 0.75391,1.30664 c 0.49996,4.74211 3.49649,11.05492 3.54297,11.15235 0.4532,4.01483 3.34763,10.60772 6.14062,16.32617 2.79222,5.71687 5.44076,10.40861 5.48242,10.48242 0.0113,0.0536 0.23398,1.11059 0.4043,2.41992 0.17458,1.34206 0.24138,2.93191 0.041,3.56641 -0.0693,0.21958 -0.0787,0.42357 -0.0957,0.73828 -0.017,0.31471 -0.0243,0.71233 -0.0254,1.18945 -0.002,0.95424 0.0231,2.22312 0.0703,3.7168 0.0945,2.98735 0.27293,6.87564 0.47266,10.92578 0.39946,8.10029 0.88848,16.85487 0.97656,20.24609 0.17871,6.88036 1.25328,7.56964 3.17774,10.71875 0.54902,0.89842 1.69573,2.11944 3.22656,3.57618 1.53083,1.45673 3.43803,3.12217 5.45898,4.78125 4.04191,3.31815 8.51707,6.60379 11.38282,8.15039 2.77788,1.49917 7.40069,4.21174 12.02929,6.64843 4.62861,2.4367 9.21935,4.60919 12.1875,5.03321 2.54834,0.36405 5.43245,2.82459 7.60938,5.24218 2.17692,2.4176 3.66601,4.73829 3.66601,4.73829 l 0.14844,0.23242 10.50977,-0.0957 0.0977,-0.36914 c 0.43877,-1.67529 2.05717,-3.6424 4.00391,-5.32812 1.94674,-1.68572 4.21095,-3.1118 5.83398,-3.83789 3.38089,-1.51251 16.38086,-7.44336 16.38086,-7.44336 l 0.0254,-0.0117 0.0234,-0.0137 c 0,0 13.86075,-8.24873 19.15234,-12.01563 2.71601,-1.93342 5.73225,-5.52418 8.10743,-8.64648 2.37517,-3.1223 4.09179,-5.77735 4.09179,-5.77735 l 0.0781,-0.11914 0.2168,-10.13086 1.02148,-0.22265 0.45508,-29.95703 2.79883,-4.76563 0.008,-0.0176 c 0,0 2.99539,-6.13362 7.34375,-15.00781 2.20455,-4.49908 4.31206,-11.13355 5.99023,-16.79883 0.83909,-2.83264 1.56911,-5.42004 2.14258,-7.36523 0.28673,-0.9726 0.53401,-1.78542 0.73438,-2.38086 0.10018,-0.29772 0.1892,-0.54191 0.26171,-0.71875 0.0725,-0.17684 0.14579,-0.29793 0.13282,-0.28125 0.15922,-0.20471 0.31469,-0.3027 0.57617,-0.39844 0.26148,-0.0957 0.62689,-0.16916 1.0957,-0.27734 0.93762,-0.21637 2.26194,-0.58981 4.03906,-1.7207 1.78987,-1.13901 3.02408,-2.50559 4.24415,-4.25196 1.22006,-1.74636 2.43864,-3.87674 4.25,-6.625 3.6913,-5.60059 3.84134,-9.2716 5.70898,-15.24804 1.93986,-6.20755 1.08653,-15.93078 1.08594,-15.9375 -0.001,-0.0233 -0.19618,-4.53414 -2.28321,-10.60547 -0.55002,-1.60007 -1.4515,-2.6005 -2.55273,-3.04688 -1.10123,-0.44638 -2.33458,-0.3401 -3.54883,0.0508 -2.42849,0.78178 -4.88133,2.70251 -6.51953,4.3086 -2.43271,2.385 -3.94628,5.46743 -4.78711,7.33398 -0.18557,-2.59778 -1.27108,-17.60125 -1.32812,-22.79687 -0.0636,-5.78899 -1.48168,-9.03332 -4.11524,-15.61719 -2.688,-6.72003 -7.57877,-9.51019 -7.60547,-9.52539 -0.0123,-0.008 -4.10635,-2.63701 -9.0957,-0.79883 -4.73062,1.74285 -13.01784,4.13057 -18.5332,5.63477 -2.62101,0.71482 -7.71651,0.83012 -12.09375,0.73632 -4.37725,-0.0938 -8.06836,-0.375 -8.06836,-0.375 l -0.0332,-0.004 -0.0351,0.002 c 0,0 -14.02996,0.88488 -36.41406,-8.99414 -22.36838,-9.87208 -31.67969,-22.43164 -31.67969,-22.43164 z m -0.4043,1.09571 c 0.55156,0.72405 9.96758,12.83239 31.85938,22.49414 22.47414,9.91875 36.75627,9.08357 36.84765,9.07812 0.0337,0.003 3.69805,0.28293 8.08594,0.37695 4.40804,0.0945 9.47775,0.0197 12.37891,-0.77148 5.52897,-1.5079 13.80756,-3.88892 18.61523,-5.66016 4.54144,-1.67316 8.2168,0.70313 8.2168,0.70313 l 0.0117,0.008 0.0117,0.008 c 0,0 4.61168,2.59757 7.1875,9.03711 2.63762,6.59404 3.98108,9.62595 4.04297,15.25781 0.0634,5.77879 1.44531,24.81641 1.44531,24.81641 l 0.96289,0.15039 c 0,0 2.34284,-5.79748 5.4082,-8.80273 1.56215,-1.53152 3.9726,-3.37547 6.125,-4.06836 1.0762,-0.34645 2.06233,-0.40438 2.86719,-0.0781 0.80486,0.32625 1.49704,1.03524 1.98242,2.44727 2.04921,5.96133 2.23242,10.33789 2.23242,10.33789 v 0.01 0.01 c 0,0 0.77967,9.72185 -1.04492,15.56055 -1.89748,6.07192 -1.99996,9.5543 -5.58789,14.99804 -1.82826,2.77392 -3.05613,4.91031 -4.23633,6.59961 -1.1802,1.68931 -2.29944,2.92706 -3.96093,3.98438 -1.67424,1.06542 -2.82869,1.38069 -3.72657,1.58789 -0.44894,0.1036 -0.83899,0.17683 -1.21484,0.31445 -0.37585,0.13762 -0.74145,0.3626 -1.02149,0.72266 -0.12278,0.15787 -0.18349,0.3058 -0.26953,0.51562 -0.086,0.20982 -0.17897,0.46956 -0.2832,0.7793 -0.20846,0.61949 -0.45789,1.43843 -0.74609,2.41602 -0.57641,1.95517 -1.30576,4.54022 -2.14258,7.36523 -1.67365,5.65002 -3.78575,12.26719 -5.92969,16.64258 -4.34295,8.86314 -7.32617,14.97228 -7.33398,14.98828 l -2.91407,4.96289 -0.44531,29.42773 -1.01953,0.22266 -0.22656,10.625 c -0.0631,0.0973 -1.66691,2.57444 -3.97266,5.60547 -2.35048,3.08983 -5.37069,6.64365 -7.89062,8.4375 -5.1711,3.68112 -19.00753,11.92582 -19.05664,11.95508 -0.0315,0.0144 -12.99585,5.92864 -16.35547,7.43164 -1.74927,0.78257 -4.0555,2.24101 -6.08008,3.99414 -1.90064,1.6458 -3.48003,3.53648 -4.12109,5.45898 l -9.31836,0.0859 c -0.1359,-0.20983 -1.45563,-2.26872 -3.58789,-4.63672 -2.23812,-2.48555 -5.16641,-5.12784 -8.20899,-5.5625 -2.62276,-0.37468 -7.26244,-2.50565 -11.86328,-4.92773 -4.60084,-2.42208 -9.20846,-5.12444 -12.02148,-6.64258 -2.72517,-1.47073 -7.21099,-4.7516 -11.22266,-8.04492 -2.00584,-1.64666 -3.8984,-3.29941 -5.4043,-4.73242 -1.5059,-1.43302 -2.63534,-2.67406 -3.0625,-3.37305 -1.98031,-3.24052 -2.85693,-3.43828 -3.0332,-10.22461 -0.0894,-3.44211 -0.57733,-12.17197 -0.97656,-20.26758 -0.19962,-4.0478 -0.37661,-7.93497 -0.47071,-10.91015 -0.0471,-1.48759 -0.0724,-2.74603 -0.0703,-3.67969 0.001,-0.46683 0.008,-0.85271 0.0234,-1.13867 0.0154,-0.28597 0.0555,-0.501 0.0527,-0.49219 0.3321,-1.05165 0.1765,-2.61121 -0.004,-3.99805 -0.18041,-1.38684 -0.42774,-2.55664 -0.42774,-2.55664 l -0.0156,-0.0742 -0.0391,-0.0684 c 0,0 -2.69902,-4.78091 -5.49804,-10.51172 -2.79903,-5.7308 -5.68494,-12.46918 -6.06446,-16.0957 l -0.01,-0.084 -0.0371,-0.0762 c 0,0 -3.07714,-6.57719 -3.50391,-11.01562 l -0.01,-0.10938 -1.125,-1.94726 -0.32031,0.0332 c 0,0 -0.43727,0.0507 -1.30665,-0.17578 -0.86937,-0.22648 -2.12338,-0.73432 -3.60937,-1.88672 -2.96736,-2.30122 -6.60199,-7.09954 -10.09766,-13.34179 -3.4228,-6.11216 -4.77248,-16.78225 -4.83203,-19.28321 -0.0336,-1.41457 -0.48632,-4.37813 -0.48633,-7.76172 0,-3.38358 0.46356,-7.12803 2.16993,-9.91211 1.76175,-2.87443 3.08623,-4.0281 3.88281,-4.45703 0.39829,-0.21446 0.66076,-0.25206 0.80664,-0.2539 0.14587,-0.002 0.12109,0.002 0.12109,0.002 l 0.20508,0.10352 0.13281,-0.0547 c 0.0558,0.008 0.19722,0.038 0.45508,0.16015 0.5226,0.24755 1.50305,0.87183 3.08985,2.27149 3.11183,3.91369 3.74252,4.03067 5.60156,8.74023 0.0119,0.0421 0.0727,0.25989 0.17773,0.52539 0.0573,0.14502 0.11873,0.29136 0.21289,0.43555 0.0471,0.0721 0.0994,0.14489 0.20313,0.22461 0.10375,0.0797 0.3252,0.17351 0.54297,0.10352 0.21777,-0.07 0.31509,-0.22557 0.37109,-0.3379 0.056,-0.11232 0.0845,-0.21678 0.10938,-0.33984 0.0497,-0.24612 0.0777,-0.56432 0.0898,-1.01953 0.0242,-0.90352 -0.0212,-2.35434 -0.17578,-4.60742 6.8e-4,-0.0181 0.21866,-5.83104 0.84375,-12.57422 0.62606,-6.75367 1.69568,-14.4647 3.2539,-17.9707 l 0.0156,-0.0371 0.01,-0.0371 c 0,0 8.89922,-32.97754 35.73047,-37.41406 z"
             id="path39051" />
        </g>
        <g
           id="path22324"
           transform="translate(4.8091875,-0.12362426)">
          <path
             style="color:#000000;fill:#454545;stroke-width:1px;-inkscape-stroke:none"
             d="m 154.06149,185.22068 -2,-43.375 c 0,0 -1.25,-26.25 11.75,-41.25 13,-15 18.125,-16.5 30.875,-20.5 0,0 15.875,-13.875 37.125,-16.75 21.25,-2.875 32.625,-1.125 32.625,-1.125 0,0 27.75,3.625 40,9.875 12.25,6.25 24.125,11.5 34.125,28 10,16.5 12,41.875 12,41.875 0,0 2.25,34.75 -0.125,43 0,0 -10.98411,1.59821 -14.96159,14.5913 0,0 0.21159,-35.4663 -4.66341,-40.9663 -4.875,-5.5 -8.25,-15.75 -23.375,-8.125 -15.125,7.625 -67.22595,8.14645 -100.72595,-27.60355 0,0 -22.89905,1.97855 -34.52405,31.85355 0,0 -5.625,16.5 -6.375,42 0,0 -5.375,-11 -11.75,-11.5 z"
             id="path39055" />
          <path
             style="color:#000000;fill:#000000;-inkscape-stroke:none"
             d="m 256.11523,61.207031 c -5.52948,-0.0793 -13.721,0.201683 -24.37109,1.642578 -21.26333,2.876804 -37.05462,16.587942 -37.29883,16.800782 -12.67226,3.975384 -18.0156,5.621663 -31.01172,20.617189 -13.19945,15.23014 -11.87109,41.60156 -11.87109,41.60156 l 2.01953,43.81641 0.43945,0.0332 c 2.91347,0.22851 5.80164,2.97444 7.90821,5.74219 2.10656,2.76775 3.43164,5.47851 3.43164,5.47851 l 0.94922,-0.20312 c 0.74742,-25.41249 6.33869,-41.81745 6.34765,-41.84375 5.77355,-14.83013 14.31374,-22.69353 21.4043,-26.8711 6.89686,-4.06343 12.19108,-4.58528 12.48828,-4.61328 16.80944,17.82802 38.21482,26.63286 57.32617,30.01953 19.18688,3.40007 36.02069,1.40456 43.78516,-2.50976 7.46872,-3.76523 11.82042,-3.09474 15.02344,-0.89453 3.20302,2.2002 5.25017,6.08178 7.75195,8.90429 1.04063,1.17404 2.00505,4.39955 2.66602,8.46875 0.66096,4.06921 1.09147,9.00629 1.36914,13.77344 0.55532,9.5343 0.50195,18.38867 0.50195,18.38867 l 0.97851,0.15039 c 3.90542,-12.75768 14.55469,-14.24414 14.55469,-14.24414 l 0.32031,-0.0449 0.0879,-0.31055 c 0.62537,-2.17233 0.91754,-5.89109 1.04101,-10.32421 0.12347,-4.43312 0.0646,-9.55694 -0.0684,-14.42188 -0.26593,-9.72988 -0.82812,-18.42578 -0.82812,-18.42578 v -0.002 -0.004 c 0,0 -1.96983,-25.42667 -12.07227,-42.095703 -10.06656,-16.609826 -22.08978,-21.943488 -34.32422,-28.185546 -6.22628,-3.176675 -16.23623,-5.635151 -24.72265,-7.326172 -8.48103,-1.689946 -15.42086,-2.596503 -15.42969,-2.597657 0,0 -2.867,-0.440232 -8.39649,-0.519531 z m -0.0449,0.996094 c 5.47051,0.07695 8.29102,0.511719 8.29102,0.511719 h 0.004 l 0.006,0.002 c 0,0 6.92199,0.903915 15.37305,2.58789 8.45106,1.683976 18.44114,4.163009 24.46484,7.236329 12.26554,6.257928 23.99237,11.424312 33.92579,27.814457 9.89753,16.33093 11.92773,41.6543 11.92773,41.6543 3.6e-4,0.006 0.56289,8.67634 0.82812,18.38085 0.13267,4.85381 0.19099,9.96438 0.0684,14.36719 -0.11875,4.2639 -0.43145,7.81649 -0.96093,9.81446 -0.96551,0.17411 -9.75187,2.12848 -14.08789,12.61914 0.002,-1.87201 0.0465,-7.73743 -0.43946,-16.08008 -0.27881,-4.78692 -0.7104,-9.74741 -1.38086,-13.875 -0.67045,-4.1276 -1.50742,-7.3967 -2.90429,-8.97266 -2.37322,-2.67748 -4.45108,-6.67091 -7.93555,-9.06445 -3.48447,-2.39354 -8.3828,-3.03555 -16.03906,0.82422 -7.36051,3.71067 -24.14035,5.78842 -43.16016,2.41797 -19.0198,-3.37046 -40.31389,-12.13629 -56.97461,-29.91602 l -0.16601,-0.17773 -0.24219,0.0215 c 0,0 -5.84992,0.51164 -13.11328,4.79102 -7.26337,4.27937 -15.98261,12.3415 -21.83399,27.3789 l -0.004,0.01 -0.004,0.01 c 0,0 -5.34367,16.00256 -6.28516,40.61524 -0.46656,-0.88826 -1.04004,-2.1333 -2.70312,-4.31836 -2.07799,-2.73021 -4.91293,-5.52748 -8.17969,-6.01367 l -1.98437,-43.01953 c 0,0 -1.17161,-26.12862 11.6289,-40.89844 12.9682,-14.963308 17.89405,-16.350803 30.64649,-20.351567 l 0.0996,-0.03125 0.0801,-0.06836 c 0,0 15.79233,-13.780082 36.86329,-16.630859 10.59988,-1.434102 18.7209,-1.715623 24.1914,-1.638672 z"
             id="path39057" />
        </g>
        <g
           id="path31496"
           transform="translate(4.8091875,-0.12362426)">
          <path
             style="color:#000000;fill:#ffffff;stroke-width:1px;-inkscape-stroke:none"
             d="m 187.29218,320.58304 -0.4375,9.1875 c 0,0 7.0625,12.5 16.1875,17.75 0,0 18.1875,11 23.25,12.9375 5.0625,1.9375 17.3125,6.4375 19.375,13.5 0,0 5.375,2.75 9.8125,-0.25 0,0 5.5,-9.75 15.5,-11.75 0,0 16.6875,-6.8125 21.4375,-11.1875 0,0 10.4375,-6.25 15.625,-12.4375 5.1875,-6.1875 7.1875,-11.1875 5.125,-17.125 0,0 5.125,-4.25 6.375,2.5 1.25,6.75 1.8125,9 1.125,20 -0.6875,11 -9.75,45.5 -9.75,45.5 l -11.875,41.375 -12.125,36 c 0,0 -7.625,24 -10.5,27.25 -2.875,3.25 -52.875,1.25 -52.875,1.25 l -12.875,-36.125 -16.25,-50.875 c 0,0 -10.75,-34.625 -11.75,-46 -1,-11.375 -3.5,-11.875 -2.75,-35.25 0,0 0.10262,-8.40821 7.375,-6.25 z"
             id="path39061" />
          <path
             style="color:#000000;fill:#000000;-inkscape-stroke:none"
             d="m 315.81055,319.43164 c -1.63188,0.24833 -2.96289,1.39063 -2.96289,1.39063 l -0.26563,0.22265 0.11328,0.32813 c 1.00054,2.88033 1.01297,5.47792 0.15235,8.15039 -0.86063,2.67247 -2.61798,5.4211 -5.18946,8.48828 -5.08185,6.06149 -15.49804,12.33008 -15.49804,12.33008 l -0.043,0.0254 -0.0391,0.0351 c -2.2555,2.07744 -7.62316,4.90691 -12.375,7.15039 -4.74458,2.24007 -8.88576,3.93233 -8.89843,3.9375 -9.98091,2.04122 -15.41133,11.38148 -15.66407,11.82422 -4.07009,2.69809 -8.9205,0.33765 -9.12109,0.23828 -1.19537,-3.62573 -4.76717,-6.48095 -8.66797,-8.70117 -4.00039,-2.2769 -8.35466,-3.89451 -10.88086,-4.86133 -2.42291,-0.92728 -8.27664,-4.17095 -13.45117,-7.16015 -5.17453,-2.98921 -9.71875,-5.73828 -9.71875,-5.73828 l -0.004,-0.002 -0.006,-0.002 c -8.85545,-5.09491 -15.82165,-17.26792 -15.92969,-17.45703 l 0.44922,-9.41602 -0.37696,-0.11132 c -1.90329,-0.56484 -3.41679,-0.44978 -4.57422,0.0937 -1.15742,0.54352 -1.92605,1.49117 -2.42773,2.4746 -1.00336,1.96687 -1.01367,4.1543 -1.01367,4.1543 -0.74986,23.39859 1.75838,23.99894 2.75195,35.30078 0.50981,5.79911 3.45089,17.26932 6.26563,27.35547 2.81474,10.08615 5.5039,18.74805 5.5039,18.74805 v 0.002 l 16.25391,50.88477 12.99219,36.45117 0.33593,0.0137 c 0,0 12.507,0.50188 25.37696,0.5957 6.43498,0.0469 12.95959,-0.009 18.07031,-0.27929 2.55536,-0.13527 4.75541,-0.32296 6.42773,-0.58399 0.83617,-0.13051 1.53934,-0.27929 2.10157,-0.45508 0.56222,-0.17578 0.98993,-0.35274 1.29297,-0.69531 0.84842,-0.95908 1.81649,-3.04855 2.9414,-5.76953 1.12491,-2.72098 2.3499,-6.03046 3.48438,-9.23828 2.26745,-6.41141 4.17131,-12.40614 4.17382,-12.41406 l 0.004,-0.008 12.125,-36.00195 11.87891,-41.39258 0.002,-0.004 c 0,0 2.26782,-8.63138 4.62109,-18.63867 2.35328,-10.00729 4.79428,-21.35496 5.14454,-26.95899 0.68882,-11.02117 0.11591,-13.37795 -1.13282,-20.12109 -0.32535,-1.75689 -0.91511,-2.87808 -1.69336,-3.53125 -0.77825,-0.65318 -1.71336,-0.77846 -2.52929,-0.6543 z m 0.15039,0.99023 c 0.62156,-0.0946 1.20208,-0.0167 1.73633,0.43165 0.53424,0.44838 1.05386,1.3272 1.35351,2.94531 1.25127,6.75684 1.80336,8.9001 1.11719,19.8789 -0.33725,5.39597 -2.77125,16.79833 -5.1211,26.79102 -2.34984,9.99269 -4.61328,18.61133 -4.61328,18.61133 l -11.86914,41.35351 -12.12304,35.99414 v 0.004 c 0,0 -1.90568,5.99379 -4.16797,12.39063 -1.13115,3.19841 -2.35147,6.49833 -3.46485,9.1914 -1.11337,2.69308 -2.17655,4.82237 -2.76562,5.48828 -0.0563,0.0637 -0.35574,0.25233 -0.8418,0.4043 -0.48605,0.15197 -1.15281,0.29409 -1.95898,0.41992 -1.61234,0.25167 -3.78974,0.43996 -6.32617,0.57422 -5.07286,0.26853 -11.58734,0.32418 -18.01172,0.27734 -12.67844,-0.0924 -24.68111,-0.57302 -25.00586,-0.58593 l -12.75782,-35.79297 -16.24609,-50.86328 -0.002,-0.004 c -0.001,-0.004 -2.68451,-8.64893 -5.49414,-18.7168 -2.81026,-10.07008 -5.74224,-21.5999 -6.23242,-27.17578 -1.00626,-11.44613 -3.49885,-11.8503 -2.75,-35.18945 l 0.002,-0.006 v -0.004 c 0,0 0.0383,-2.01716 0.9043,-3.71484 0.43302,-0.84884 1.05571,-1.59743 1.96289,-2.02344 0.83051,-0.39001 1.97713,-0.46945 3.48632,-0.0957 l -0.42382,8.88476 0.0723,0.125 c 0,0 7.04736,12.57204 16.37305,17.9375 l -0.01,-0.004 c 0,0 4.55149,2.75093 9.73633,5.74609 5.18484,2.99516 10.95417,6.22026 13.59375,7.23047 2.5363,0.97068 6.83829,2.57183 10.74414,4.79492 3.90585,2.22309 7.36549,5.07397 8.33008,8.37696 l 0.0606,0.20703 0.1914,0.0976 c 0,0 5.61017,2.90503 10.32032,-0.27929 l 0.0976,-0.0664 0.0586,-0.10352 c 0,0 5.43397,-9.55828 15.1621,-11.5039 l 0.0469,-0.01 0.043,-0.0176 c 0,0 4.18348,-1.70833 8.96289,-3.96484 4.77941,-2.25651 10.13051,-5.0208 12.625,-7.31836 l -0.082,0.0606 c 0,0 10.45882,-6.23142 15.75195,-12.54492 2.61602,-3.12032 4.45243,-5.96545 5.37305,-8.82422 0.87955,-2.73124 0.83989,-5.48156 -0.0859,-8.38672 0.2857,-0.21323 1.18707,-0.86003 2.24805,-1.02149 z"
             id="path39063" />
        </g>
        <g
           id="path30228"
           transform="translate(4.8091875,-0.12362426)">
          <path
             style="color:#000000;fill:#a458a2;stroke-width:1.01779px;-inkscape-stroke:none"
             d="m 227.13825,373.3136 c 0,0 32.75,-5.05002 43,2.2013 10.25,7.25133 17.375,24.7322 17.375,24.7322 0,0 -9.25,4.40259 -18.625,5.30901 0,0 -2.83128,6.7935 -2.56611,9.35723 0.26516,2.56373 11.75565,75.72163 11.75565,75.72163 l -1.85616,4.76121 -48.43681,-0.27469 6.62912,-81.12377 c 0,0 -3.09359,-3.75403 -4.24264,-7.23338 0,0 -16.35184,-1.64811 -19.79899,-2.74686 -3.44714,-1.09874 18.1523,-27.34675 16.76594,-30.70388 z"
             id="path39067" />
          <path
             style="color:#000000;fill:#000000;-inkscape-stroke:none"
             d="m 252.04102,371.12305 c -2.43219,-0.0585 -4.88991,-0.0268 -7.26563,0.0625 -9.50287,0.35737 -17.71484,1.625 -17.71484,1.625 l -0.64063,0.0996 0.24805,0.59765 c 0.0198,0.048 0.0447,0.25863 -0.0254,0.58399 -0.0701,0.32536 -0.21819,0.75624 -0.43555,1.25781 -0.43472,1.00314 -1.1414,2.29672 -2.02344,3.76172 -1.76408,2.93 -4.22459,6.55678 -6.62304,10.11719 -2.39845,3.5604 -4.73449,7.05132 -6.26953,9.74804 -0.76752,1.34836 -1.33654,2.49033 -1.61719,3.39258 -0.14033,0.45113 -0.21912,0.84251 -0.17188,1.22266 0.0473,0.38014 0.32313,0.7853 0.71485,0.91015 0.93763,0.29886 2.60052,0.60176 4.62695,0.91211 2.02643,0.31036 4.39761,0.61947 6.66016,0.89453 4.3836,0.53293 8.10322,0.90887 8.34765,0.9336 1.22513,3.38556 3.82394,6.64098 4.03906,6.90234 l -6.6582,81.48242 49.33594,0.2793 2.0332,-5.21484 -0.0215,-0.13477 c 0,0 -2.87163,-18.29076 -5.77735,-36.90039 -1.45285,-9.30481 -2.91486,-18.68969 -4.02929,-25.9082 -0.55722,-3.60926 -1.02777,-6.67709 -1.36719,-8.92188 -0.33942,-2.24479 -0.55159,-3.70826 -0.57813,-3.96484 -0.10878,-1.05174 0.49221,-3.42705 1.16016,-5.42578 0.62195,-1.86108 1.18865,-3.21975 1.27539,-3.42969 9.38266,-0.9883 18.46875,-5.29883 18.46875,-5.29883 l 0.4336,-0.20703 -0.18165,-0.44531 c 0,0 -1.79427,-4.40095 -4.875,-9.70899 -3.08072,-5.30804 -7.44072,-11.54119 -12.67773,-15.24609 -2.68954,-1.9027 -6.72222,-2.94089 -11.27539,-3.49219 -2.27658,-0.27565 -4.68304,-0.42592 -7.11523,-0.48437 z m -0.0254,1.01757 c 2.40668,0.0579 4.78245,0.20594 7.01758,0.47657 4.47026,0.54126 8.37509,1.58954 10.81055,3.3125 5.01298,3.54642 9.3405,9.68056 12.38477,14.92578 2.79184,4.8103 4.33963,8.4771 4.60546,9.11523 -0.69302,0.32345 -9.1144,4.21959 -17.99414,5.07813 l -0.30468,0.0293 -0.11719,0.28125 c 0,0 -0.71314,1.71301 -1.39453,3.75196 -0.6814,2.03894 -1.36342,4.34153 -1.20703,5.85351 0.0397,0.38435 0.24426,1.76693 0.58398,4.01368 0.33972,2.24674 0.80989,5.31596 1.36719,8.92578 1.1146,7.21962 2.57639,16.60504 4.02929,25.91015 2.89505,18.54126 5.73469,36.62888 5.75586,36.76367 l -1.67773,4.30665 -47.53711,-0.26758 6.59961,-80.78321 -0.13086,-0.16015 c 0,0 -3.05441,-3.74378 -4.15234,-7.06836 l -0.10352,-0.31445 -0.32812,-0.0332 c 0,0 -4.08505,-0.41232 -8.59766,-0.96094 -2.2563,-0.2743 -4.6179,-0.58293 -6.62695,-0.89062 -2.00905,-0.30769 -3.68476,-0.62253 -4.47071,-0.87305 -0.0392,-0.0125 0.002,0.0583 -0.0137,-0.0684 -0.0157,-0.12669 0.0151,-0.41466 0.13281,-0.79297 0.23535,-0.7566 0.77829,-1.87205 1.5293,-3.1914 1.50202,-2.63871 3.8313,-6.12502 6.22852,-9.6836 2.39721,-3.55857 4.86222,-7.19209 6.65039,-10.1621 0.89408,-1.48501 1.61827,-2.8017 2.08593,-3.88086 0.23384,-0.53958 0.40574,-1.01878 0.49805,-1.44727 0.0422,-0.19592 -0.0186,-0.36183 -0.0137,-0.54297 0.6015,-0.0911 8.12259,-1.21957 17.18945,-1.56055 2.35866,-0.0887 4.7945,-0.12038 7.20117,-0.0625 z"
             id="path39069" />
        </g>
        <g
           id="path32996"
           transform="translate(4.8091875,-0.12362426)">
          <path
             style="color:#000000;fill:#484848;stroke-width:1.00053px;-inkscape-stroke:none"
             d="m 181.99073,320.46048 c 0,0 -3.37235,7.20307 -1.60459,21.44872 1.76777,14.24565 6.35459,38.33351 10.10459,49.22006 3.75,10.88656 11.72734,39.79313 11.72734,39.79313 l 21.56675,63.88422 52.3701,-0.5309 6.89831,-20.68389 8.9375,-26.40303 6.625,-20.83462 7.6875,-25.08914 7.625,-27.52923 c 0,0 3.125,-13.38922 3.625,-17.95657 0.5,-4.56735 2.3125,-14.32771 2.4375,-24.08808 0,0 -1.90625,-9.88549 -2.34375,-10.66757 -0.4375,-0.78208 1.125,-0.12513 1.125,-0.12513 l 30.96875,22.24236 2.03042,28.14451 c 0,0 2.96958,41.61706 1.84458,43.61919 l -24.6875,5.19301 c 0,0 15.8125,10.88656 28.5,12.26302 0,0 -16.4375,50.74138 -25.4375,61.25254 -9,10.51116 -163.375,5.00531 -163.375,5.00531 l -7.15625,-14.95337 -6.70596,-15.27038 -6.67332,-17.69646 -5.2591,-18.89096 c 0,0 23.11355,-6.14952 26.95844,-10.44092 l -24.96971,-1.7254 -0.0442,-20.92607 1.85615,-18.93521 2.12133,-20.66061 1.19324,-15.83833 c 0,0 30.34439,-22.23683 32.05437,-22.8202 z"
             id="path39073" />
          <path
             style="color:#000000;fill:#000000;-inkscape-stroke:none"
             d="m 182.94336,319.60742 -1.11328,0.37891 c -0.22954,0.0782 -0.41899,0.20016 -0.74414,0.40039 -0.32515,0.20023 -0.7406,0.47114 -1.24024,0.80469 -0.99928,0.6671 -2.32675,1.58454 -3.87109,2.66796 -3.08868,2.16685 -7.04447,4.99876 -10.94531,7.8125 -7.8017,5.62749 -15.38868,11.18165 -15.38868,11.18165 l -0.18554,0.13476 -1.21094,16.04492 -2.11914,20.63282 -1.85938,18.9414 0.0449,21.39453 24.08789,1.66211 c -1.07672,0.79932 -2.60132,1.68131 -4.65235,2.57422 -2.68433,1.16862 -5.92401,2.33618 -9.04492,3.36914 -6.24182,2.06592 -12.00781,3.59766 -12.00781,3.59766 l -0.49024,0.13086 5.40235,19.3789 6.68555,17.71094 6.71484,15.27539 7.28906,15.2168 0.30274,0.0117 c 0,0 38.60033,1.37498 78.33007,1.4375 19.86487,0.0313 40.01162,-0.26638 55.76954,-1.22852 7.87895,-0.48107 14.65805,-1.12664 19.77148,-1.98633 2.55671,-0.42984 4.69753,-0.91165 6.36133,-1.46093 1.6638,-0.54929 2.86009,-1.1431 3.54101,-1.9375 2.33042,-2.71882 5.03371,-7.86464 7.84766,-14.10938 2.81395,-6.24474 5.71448,-13.57193 8.33398,-20.57031 5.23902,-13.99677 9.35157,-26.67774 9.35157,-26.67774 l 0.18945,-0.58593 -0.61133,-0.0664 c -6.22549,-0.67468 -13.31852,-3.70966 -18.83008,-6.58594 -4.88309,-2.5483 -7.59848,-4.42462 -8.36523,-4.9414 l 23.65234,-4.97071 0.11133,-0.19726 c 0.17255,-0.30676 0.18442,-0.57962 0.22656,-1.01563 0.0421,-0.436 0.0686,-0.99449 0.082,-1.66601 0.0268,-1.34305 0.004,-3.13475 -0.0566,-5.22852 -0.12044,-4.18753 -0.38647,-9.57442 -0.6875,-14.89844 -0.60204,-10.64803 -1.3457,-21.04492 -1.3457,-21.04492 l -2.04687,-28.34765 -31.20508,-22.38868 -0.0527,-0.0215 c 0,0 -0.40497,-0.17728 -0.82226,-0.25977 -0.20865,-0.0412 -0.4182,-0.12739 -0.75196,0.0625 -0.16687,0.0949 -0.31729,0.34403 -0.32031,0.54493 -0.003,0.20089 0.0622,0.34243 0.14063,0.48242 -0.0172,-0.0307 0.0886,0.23423 0.17968,0.56836 0.0911,0.33412 0.20103,0.78067 0.32032,1.29492 0.23857,1.02849 0.51801,2.33413 0.7832,3.61523 0.52356,2.52928 0.98018,4.90071 0.99219,4.96289 -0.12858,9.67939 -1.92451,19.3688 -2.42969,23.97852 -0.48695,4.44342 -3.61523,17.87891 -3.61523,17.87891 l -7.61914,27.47265 -7.6836,25.05274 -6.62305,20.80664 -8.93554,26.37109 -6.78711,20.32617 -51.65039,0.52149 -21.45117,-63.47071 v -0.002 c -0.0138,-0.0499 -7.96411,-28.83711 -11.72852,-39.75391 -3.71686,-10.77889 -8.31685,-34.87247 -10.08008,-49.0664 -0.87781,-7.06643 -0.47913,-12.37193 0.13477,-15.90235 0.6139,-3.53041 1.42578,-5.25 1.42578,-5.25 z m 135.30273,1.64649 c 0.12018,0.0415 0.27226,0.0855 0.29297,0.0937 l 30.72071,22.03906 2.01171,27.88086 c 0,0 0.74226,10.39091 1.34375,21.02929 0.30075,5.3192 0.56756,10.69928 0.6875,14.86915 0.06,2.08493 0.0828,3.86836 0.0566,5.18164 -0.0131,0.65664 -0.0382,1.19714 -0.0762,1.58984 -0.027,0.27915 -0.0552,0.35489 -0.0742,0.44141 l -25.52539,5.36328 0.96094,0.66211 c 0,0 3.97837,2.73565 9.54492,5.64062 5.39492,2.8154 12.27401,5.75901 18.57617,6.57813 -0.16051,0.49412 -4.02573,12.40836 -9.15039,26.09961 -2.61486,6.98597 -5.50927,14.29944 -8.30859,20.51171 -2.79932,6.21228 -5.52573,11.33797 -7.69531,13.86915 -0.44408,0.51809 -1.50939,1.11301 -3.09571,1.63671 -1.58631,0.52371 -3.68513,1.00114 -6.21093,1.42579 -5.0516,0.84929 -11.80866,1.49474 -19.66797,1.9746 -15.71862,0.95974 -35.85319,1.25781 -55.70703,1.22657 -39.45993,-0.0621 -77.51707,-1.41275 -77.99414,-1.42969 l -7.02149,-14.6543 -6.69726,-15.23437 -6.66016,-17.64453 -5.12305,-18.37696 c 0.43784,-0.11698 5.55773,-1.47678 11.58203,-3.4707 3.13809,-1.03864 6.39809,-2.21153 9.12891,-3.40039 2.73083,-1.18886 4.91997,-2.34961 6.00781,-3.5625 l 0.6836,-0.76367 -25.52735,-1.76172 -0.043,-20.41211 1.85352,-18.88867 2.12109,-20.64453 1.17774,-15.59766 c 0.17969,-0.13153 7.49333,-5.486 15.19726,-11.04297 3.899,-2.8124 7.85178,-5.64265 10.9336,-7.80469 1.54091,-1.08101 2.86408,-1.99507 3.85156,-2.65429 0.25707,-0.17162 0.42185,-0.27292 0.63086,-0.40821 -0.29994,0.92264 -0.67711,2.29106 -0.99805,4.13672 -0.63033,3.62492 -1.03252,9.03123 -0.14258,16.19532 1.77232,14.26708 6.34383,38.29844 10.12696,49.26953 3.73231,10.82371 11.71875,39.7207 11.71875,39.7207 l 0.004,0.0137 21.6875,64.17383 53.08789,-0.53711 7.01172,-21 8.9375,-26.37695 6.62891,-20.82032 7.68945,-25.07031 7.62891,-27.51758 0.004,-0.01 c 0,0 3.12171,-13.31453 3.63476,-17.9961 0.49415,-4.5091 2.31372,-14.30365 2.43945,-24.11132 l 0.002,-0.0508 -0.01,-0.0508 c 0,0 -0.47764,-2.4704 -1.00976,-5.04101 -0.26606,-1.28531 -0.54522,-2.59588 -0.78711,-3.63867 -0.12095,-0.5214 -0.23318,-0.97463 -0.33008,-1.33008 -0.0391,-0.14323 -0.0777,-0.21308 -0.10938,-0.32031 z"
             id="path39075" />
        </g>
      </g>
    </g>
  </g>
</svg>
