<?xml version="1.0" encoding="UTF-8" standalone="no"?>
<!-- Created with Inkscape (http://www.inkscape.org/) -->

<svg
   width="200mm"
   height="200mm"
   viewBox="0 0 200 200"
   version="1.1"
   id="svg5"
   inkscape:version="1.1.2 (b8e25be833, 2022-02-05)"
   sodipodi:docname="food.svg"
   xmlns:inkscape="http://www.inkscape.org/namespaces/inkscape"
   xmlns:sodipodi="http://sodipodi.sourceforge.net/DTD/sodipodi-0.dtd"
   xmlns="http://www.w3.org/2000/svg"
   xmlns:svg="http://www.w3.org/2000/svg">
  <sodipodi:namedview
     id="namedview7"
     pagecolor="#505050"
     bordercolor="#eeeeee"
     borderopacity="1"
     inkscape:pageshadow="0"
     inkscape:pageopacity="0"
     inkscape:pagecheckerboard="0"
     inkscape:document-units="mm"
     showgrid="false"
     width="200mm"
     showguides="false"
     inkscape:zoom="0.5"
     inkscape:cx="289"
     inkscape:cy="302"
     inkscape:window-width="1366"
     inkscape:window-height="705"
     inkscape:window-x="-8"
     inkscape:window-y="-8"
     inkscape:window-maximized="1"
     inkscape:current-layer="layer1" />
  <defs
     id="defs2">
    <inkscape:path-effect
       effect="spiro"
       id="path-effect9898"
       is_visible="true"
       lpeversion="1" />
    <inkscape:path-effect
       effect="spiro"
       id="path-effect9890"
       is_visible="true"
       lpeversion="1" />
    <inkscape:path-effect
       effect="spiro"
       id="path-effect9882"
       is_visible="true"
       lpeversion="1" />
    <inkscape:path-effect
       effect="spiro"
       id="path-effect9874"
       is_visible="true"
       lpeversion="1" />
    <inkscape:path-effect
       effect="spiro"
       id="path-effect9866"
       is_visible="true"
       lpeversion="1" />
    <inkscape:path-effect
       effect="spiro"
       id="path-effect9544"
       is_visible="true"
       lpeversion="1" />
    <inkscape:path-effect
       effect="spiro"
       id="path-effect9536"
       is_visible="true"
       lpeversion="1" />
    <inkscape:path-effect
       effect="spiro"
       id="path-effect9528"
       is_visible="true"
       lpeversion="1" />
    <inkscape:path-effect
       effect="spiro"
       id="path-effect9520"
       is_visible="true"
       lpeversion="1" />
    <inkscape:path-effect
       effect="spiro"
       id="path-effect9512"
       is_visible="true"
       lpeversion="1" />
    <inkscape:path-effect
       effect="spiro"
       id="path-effect9034"
       is_visible="true"
       lpeversion="1" />
    <inkscape:path-effect
       effect="spiro"
       id="path-effect9026"
       is_visible="true"
       lpeversion="1" />
    <inkscape:path-effect
       effect="spiro"
       id="path-effect9018"
       is_visible="true"
       lpeversion="1" />
    <inkscape:path-effect
       effect="spiro"
       id="path-effect9010"
       is_visible="true"
       lpeversion="1" />
    <inkscape:path-effect
       effect="spiro"
       id="path-effect9002"
       is_visible="true"
       lpeversion="1" />
    <inkscape:path-effect
       effect="spiro"
       id="path-effect8994"
       is_visible="true"
       lpeversion="1" />
    <inkscape:path-effect
       effect="spiro"
       id="path-effect8986"
       is_visible="true"
       lpeversion="1" />
    <inkscape:path-effect
       effect="spiro"
       id="path-effect6009"
       is_visible="true"
       lpeversion="1" />
  </defs>
  <g
     inkscape:label="Layer 1"
     inkscape:groupmode="layer"
     id="layer1">
    <g
       id="g21779"
       transform="matrix(1.1334782,0,0,1.1334782,-16.441383,-9.8729433)">
      <path
         style="fill:#50ab00;fill-opacity:1;stroke:#000000;stroke-width:2;stroke-linecap:butt;stroke-linejoin:miter;stroke-miterlimit:4;stroke-dasharray:none;stroke-opacity:1"
         d="m 58.070452,95.918318 6.55761,21.207592 -13.812836,5.02285 -12.557123,-15.62665 c 0,0 -1.95333,14.92903 -15.20807,7.25523 0,0 -9.069032,-4.7438 -2.232377,-13.952358 0,0 -9.348079,-15.90569 11.580457,-16.324259 0,0 3.627613,-16.742831 15.626642,-8.650463 0,0 4.325231,2.790472 4.604279,6.697131 0,0 8.371415,-5.999512 12.557121,2.232378 0,0 3.488088,8.510933 -7.115703,12.138549 z"
         id="path9452" />
      <g
         id="g26489">
        <path
           id="path13132"
           style="fill:#c87137;stroke:#000000;stroke-width:1.68244;stroke-opacity:1"
           d="m 129.55097,14.220209 a 7.0498137,9.8962714 27.68339 0 0 -0.53669,0.01996 7.0498137,9.8962714 27.68339 0 0 -8.9512,8.811502 16.598169,23.647917 25.95335 0 0 -16.12626,22.435363 16.598169,23.647917 25.95335 0 0 5.8166,18.849615 7.0498137,9.8962714 27.68339 0 0 6.09813,7.5015 7.0498137,9.8962714 27.68339 0 0 8.45229,-7.318329 16.598169,23.647917 25.95335 0 0 15.14554,-21.975653 16.598169,23.647917 25.95335 0 0 -4.84016,-18.085564 7.0498137,9.8962714 27.68339 0 0 0.35708,-1.496024 7.0498137,9.8962714 27.68339 0 0 -5.41533,-8.742366 z" />
        <path
           style="fill:#a05a2c;stroke:none;stroke-width:0.364918px;stroke-linecap:butt;stroke-linejoin:miter;stroke-opacity:1"
           d="m 118.90273,29.086525 c 0,0 3.62761,-0.906903 1.88357,3.697373 0,0 -9.13879,8.650465 -5.85998,21.416872 0,0 0.48832,2.232377 -2.16262,2.162615 0,0 -4.25547,0.76738 -0.83715,-15.835926 0,0 3.13927,-9.487604 6.97618,-11.440934 z"
           id="path33232" />
      </g>
      <g
         id="g26498">
        <path
           style="fill:#00bb00;fill-opacity:1;stroke:#000000;stroke-width:2;stroke-linecap:butt;stroke-linejoin:miter;stroke-miterlimit:4;stroke-dasharray:none;stroke-opacity:1"
           d="m 89.323733,50.573155 c 0,0 2.092856,-13.394261 -8.929506,-23.160913 L 81.649941,50.852204 71.325196,30.06319 c 0,0 -5.301896,11.580458 5.999513,22.323773 z"
           id="path11983" />
        <g
           id="g41624"
           transform="matrix(1.3792199,0,0,1.3792199,-36.805583,-9.5615071)"
           style="stroke:#000000;stroke-width:1.4501;stroke-miterlimit:4;stroke-dasharray:none;stroke-opacity:1">
          <path
             id="path10284"
             style="fill:#ff6600;fill-opacity:0.995984;stroke:#000000;stroke-width:7.55905;stroke-linecap:butt;stroke-linejoin:miter;stroke-miterlimit:4;stroke-dasharray:none;stroke-opacity:1"
             d="m 332.75586,190.87891 c -9.19537,-0.0989 -29.95741,1.58232 -48.94141,16.61132 -25.31199,20.03866 -14.76562,42.71291 -14.76562,42.71289 0,10e-6 3.24665,5.11521 7.63476,12.08008 1.93896,-0.62224 4.00754,-1.23309 6.16993,-1.8125 l 21.39257,-5.73242 c 11.85134,-3.17556 21.80769,-4.18605 22.32227,-2.26562 0.51458,1.92042 -8.6135,6.02366 -20.46484,9.19922 l -21.39063,5.73242 c -1.41825,0.38002 -2.80915,0.72823 -4.16016,1.04492 9.64807,15.40114 23.78525,38.25528 38.35547,63.09375 l 32.73633,-10.77344 c 4.57372,-1.50517 9.39532,-1.99273 10.8125,-1.09375 1.41718,0.89898 -1.12354,2.83469 -5.69726,4.33984 l -35.42969,11.65821 c 8.83763,15.15584 17.48004,30.47799 24.70898,44.2539 27.94865,53.26068 31.64063,40.60547 31.64063,40.60547 0,0 -2.12294,-84.04074 -1.67774,-143.66601 l -26.34179,9.31836 c -2.46886,0.87341 -5.10133,1.13026 -5.90039,0.57617 -0.79906,-0.55408 0.54677,-1.70274 3.01562,-2.57617 l 29.24414,-10.34571 c 0.10266,-11.29775 0.27004,-21.93881 0.60547,-30.49218 2.10933,-53.788 -39.02344,-52.20508 -39.02344,-52.20508 0,0 -1.78058,-0.23072 -4.8457,-0.26367 z"
             transform="matrix(0.1918355,0,0,0.1918355,26.685798,6.9325472)" />
        </g>
      </g>
      <circle
         style="fill:#00af00;fill-opacity:1;stroke:#000000;stroke-width:1.37922;stroke-miterlimit:4;stroke-dasharray:none;stroke-opacity:1"
         id="circle46571"
         cx="28.604713"
         cy="59.203167"
         r="7.3993545" />
      <circle
         style="fill:#00af00;fill-opacity:1;stroke:#000000;stroke-width:1.37922;stroke-miterlimit:4;stroke-dasharray:none;stroke-opacity:1"
         id="circle46655"
         cx="76.947166"
         cy="103.20467"
         r="7.3993545" />
      <circle
         style="fill:#00af00;fill-opacity:1;stroke:#000000;stroke-width:1.37922;stroke-miterlimit:4;stroke-dasharray:none;stroke-opacity:1"
         id="circle46657"
         cx="116.01576"
         cy="88.208641"
         r="7.3993545" />
      <circle
         style="fill:#00af00;fill-opacity:1;stroke:#000000;stroke-width:1.37922;stroke-miterlimit:4;stroke-dasharray:none;stroke-opacity:1"
         id="circle46659"
         cx="156.8602"
         cy="29.211117"
         r="7.3993545" />
      <g
         id="g21738">
        <path
           id="path872"
           style="fill:#b3b3b3;fill-opacity:1;stroke:#000000;stroke-width:3;stroke-miterlimit:4;stroke-dasharray:none;stroke-opacity:1;paint-order:markers stroke fill"
           d="M 145.01482,74.074612 C 134.76189,84.340766 129.6435,98.039856 131.72406,109.64662 l -14.49401,4.07024 9.22963,5.22321 6.54096,10.71389 3.52591,-15.22447 c 11.60242,2.07035 25.29026,-3.0482 35.54947,-13.29368 4.79078,-4.812297 8.55198,-10.480715 10.91237,-16.445742 -0.27622,-0.07542 -0.55344,-0.156462 -0.83147,-0.243077 -0.45641,-0.147592 -0.91459,-0.310016 -1.37375,-0.486988 -0.45908,-0.177005 -0.91886,-0.368448 -1.37855,-0.573993 -0.45966,-0.205506 -0.91895,-0.424994 -1.37708,-0.658082 -0.45823,-0.23302 -0.91502,-0.479508 -1.36958,-0.739035 -0.45442,-0.259639 -0.90634,-0.532156 -1.35497,-0.817072 -0.44879,-0.284906 -0.89403,-0.582056 -1.33494,-0.890932 -0.44084,-0.308784 -0.8771,-0.629108 -1.30802,-0.960414 -0.43087,-0.33139 -0.85613,-0.673566 -1.27506,-1.025928 -0.41897,-0.352303 -0.83137,-0.71459 -1.23645,-1.086229 -0.40505,-0.371666 -0.80255,-0.752465 -1.19181,-1.14173 -0.38933,-0.389327 -0.7702,-0.786894 -1.14193,-1.192014 -0.37164,-0.405086 -0.73393,-0.817478 -1.08623,-1.236456 -0.35237,-0.418922 -0.69454,-0.84419 -1.02593,-1.275057 -0.33131,-0.430915 -0.65163,-0.867178 -0.96042,-1.308023 -0.30887,-0.44091 -0.60602,-0.886149 -0.89093,-1.334939 -0.28491,-0.448628 -0.55743,-0.900548 -0.81707,-1.354968 -0.25953,-0.454561 -0.50602,-0.911353 -0.73904,-1.369575 -0.23308,-0.458128 -0.45257,-0.917424 -0.65808,-1.377086 -0.20554,-0.459685 -0.39699,-0.91947 -0.57399,-1.378548 -0.10219,-0.274072 -0.19916,-0.547738 -0.29086,-0.820825 -5.71818,2.381439 -11.13581,6.044962 -15.75741,10.655515 z"
           sodipodi:nodetypes="ccccccccccccccccccsccccccccccc" />
        <path
           id="path1197"
           style="fill:#b3b3b3;fill-opacity:1;stroke:#000000;stroke-width:3;stroke-miterlimit:4;stroke-dasharray:none;stroke-opacity:1;paint-order:markers stroke fill"
           d="m 160.77223,63.419097 c 0.0917,0.273087 0.18867,0.546753 0.29086,0.820825 0.177,0.459078 0.36845,0.918863 0.57399,1.378548 0.20551,0.459662 0.425,0.918958 0.65808,1.377086 0.23302,0.458222 0.47951,0.915014 0.73904,1.369575 0.25964,0.45442 0.53216,0.90634 0.81707,1.354968 0.28491,0.44879 0.58206,0.894029 0.89093,1.334939 0.30879,0.440845 0.62911,0.877108 0.96042,1.308023 0.33139,0.430867 0.67356,0.856135 1.02593,1.275057 0.3523,0.418978 0.71459,0.83137 1.08623,1.236456 0.37173,0.405118 0.7526,0.802687 1.14193,1.192014 0.38926,0.389265 0.78676,0.770069 1.19181,1.14173 0.40508,0.371639 0.81748,0.733926 1.23645,1.086229 0.41893,0.352362 0.84419,0.694538 1.27506,1.025928 0.43092,0.331306 0.86718,0.65163 1.30802,0.960414 0.44091,0.308876 0.88615,0.606026 1.33494,0.890932 0.44863,0.284916 0.90055,0.557433 1.35497,0.817072 0.45456,0.259527 0.91135,0.506015 1.36958,0.739035 0.45813,0.233088 0.91742,0.452576 1.37708,0.658082 0.45969,0.205545 0.91947,0.396988 1.37855,0.573993 0.45916,0.176972 0.91734,0.339396 1.37375,0.486988 0.27803,0.08662 0.55525,0.167658 0.83147,0.243077 2.93416,-7.336157 4.25257,-14.379706 2.6379,-20.806362 0,0 -2.38946,0.974813 -2.46964,0.69808 -0.0894,-0.308514 1.25014,-2.841706 1.14854,-3.14541 -7.0178,-2.360598 -15.30111,-1.463274 -23.53296,1.982721 z"
           sodipodi:nodetypes="ccccccccccscccccccccccsscc" />
        <g
           id="g21711">
          <ellipse
             style="fill:#000000;fill-opacity:1;stroke:#000000;stroke-width:3;stroke-miterlimit:4;stroke-dasharray:none;stroke-opacity:1;paint-order:markers stroke fill"
             id="path4567"
             cx="73.974876"
             cy="169.5406"
             rx="4.3704133"
             ry="4.288723"
             transform="rotate(-45)" />
          <ellipse
             style="fill:#e6e6e6;fill-opacity:1;stroke:#000000;stroke-width:3;stroke-miterlimit:4;stroke-dasharray:none;stroke-opacity:1;paint-order:markers stroke fill"
             id="path4569"
             cx="75.291161"
             cy="169.74483"
             rx="2.6249802"
             ry="3.2478659"
             transform="rotate(-45)" />
        </g>
        <path
           style="font-variation-settings:normal;fill:#999999;fill-opacity:1;stroke:#000000;stroke-width:1;stroke-linecap:butt;stroke-linejoin:miter;stroke-miterlimit:4;stroke-dasharray:none;stroke-dashoffset:0;stroke-opacity:1;stop-color:#000000"
           d="m 165.45576,77.793902 c -5.81652,1.7374 -9.51793,12.08626 -9.51793,12.08626 0,0 12.35066,-2.832704 11.55748,-9.064697"
           id="path10032"
           sodipodi:nodetypes="ccc" />
      </g>
      <g
         id="g26503">
        <path
           style="fill:#a05a2c;fill-opacity:1;stroke:#000000;stroke-width:2;stroke-linecap:butt;stroke-linejoin:miter;stroke-miterlimit:4;stroke-dasharray:none;stroke-opacity:1"
           d="M 32.956208,119.07923 H 164.10837 c 0,0 0.27905,58.87895 -66.134175,58.87895 0,0 -59.995139,2.23238 -65.017987,-58.87895 z"
           id="path871"
           sodipodi:nodetypes="cccc" />
        <rect
           style="fill:#e3dedb;fill-opacity:1;stroke:none;stroke-width:1.37922;stroke-miterlimit:4;stroke-dasharray:none;stroke-opacity:1"
           id="rect52339"
           width="6.2154579"
           height="8.6819096"
           x="-66.125381"
           y="130.92363"
           ry="3.107729"
           transform="rotate(-44.783499)" />
        <path
           style="fill:#e3dedb;fill-opacity:1;stroke:none;stroke-width:1.37922;stroke-linecap:butt;stroke-linejoin:miter;stroke-miterlimit:4;stroke-dasharray:none;stroke-opacity:1"
           d="m 57.651879,145.37942 c 0,0 10.534032,10.6038 17.859018,13.74307 0,0 1.255716,3.1393 -2.162613,2.93 0,0 -15.138307,-7.88308 -17.998541,-14.09187 0,0 -1.046433,-2.65097 2.302136,-2.5812 z"
           id="path52454" />
      </g>
      <g
         id="g26480">
        <g
           id="g24996">
          <path
             id="path16068"
             style="fill:#00af00;fill-opacity:1;stroke:#000000;stroke-width:2.06883;stroke-linecap:butt;stroke-linejoin:miter;stroke-miterlimit:4;stroke-dasharray:none;stroke-opacity:1"
             d="m 45.475005,21.219946 c -16.2371,26.473533 4.609864,35.417625 9.194241,37.012152 C 52.202473,52.215601 50.092025,45.93744 48.760035,41.74481 47.805832,38.741311 47.251133,36.8081 47.251133,36.8081 l 9.005363,20.647123 C 72.320325,33.109599 45.475005,21.219946 45.475005,21.219946 Z m 10.781491,36.235277 c -0.230972,0.350048 -0.469512,0.701778 -0.718434,1.056979 0,0 -0.327861,-0.09195 -0.868816,-0.280104 2.679915,6.536363 5.778767,12.764473 8.761608,15.67083 z"
             sodipodi:nodetypes="ccscccccccc" />
          <path
             style="fill:none;stroke:#008000;stroke-width:0.364918px;stroke-linecap:butt;stroke-linejoin:miter;stroke-opacity:1"
             d="m 51.789364,35.426573 -3.527026,4.636929 -5.204213,-3.453031"
             id="path18460"
             sodipodi:nodetypes="ccc" />
          <path
             style="fill:none;stroke:#008000;stroke-width:0.364918px;stroke-linecap:butt;stroke-linejoin:miter;stroke-opacity:1"
             d="m 54.55179,41.148741 -3.601022,4.883574 -7.054049,-3.10773"
             id="path18662"
             sodipodi:nodetypes="ccc" />
          <path
             style="fill:none;stroke:#008000;stroke-width:0.364918px;stroke-linecap:butt;stroke-linejoin:miter;stroke-opacity:1"
             d="m 46.560485,48.646753 7.103383,3.946325 3.255715,-6.116803"
             id="path18697"
             sodipodi:nodetypes="ccc" />
        </g>
        <g
           id="g26471">
          <path
             style="fill:none;stroke:#00af00;stroke-width:1;stroke-linecap:butt;stroke-linejoin:miter;stroke-miterlimit:4;stroke-dasharray:none;stroke-opacity:1"
             d="m 47.251133,36.8081 c 12.907102,31.647823 10.40349,28.786553 12.907102,31.57629"
             id="path25068" />
        </g>
      </g>
    </g>
  </g>
</svg>
